<?xml version="1.0" encoding="UTF-8" standalone="no"?>
<!-- Created with Inkscape (http://www.inkscape.org/) -->

<svg
   xmlns:dc="http://purl.org/dc/elements/1.1/"
   xmlns:cc="http://creativecommons.org/ns#"
   xmlns:rdf="http://www.w3.org/1999/02/22-rdf-syntax-ns#"
   xmlns:svg="http://www.w3.org/2000/svg"
   xmlns="http://www.w3.org/2000/svg"
   xmlns:sodipodi="http://sodipodi.sourceforge.net/DTD/sodipodi-0.dtd"
   xmlns:inkscape="http://www.inkscape.org/namespaces/inkscape"
   width="166.34985mm"
   height="91.722221mm"
   viewBox="0 0 589.42861 325"
   id="svg4347"
   version="1.1"
   inkscape:version="0.91 r13725"
   sodipodi:docname="drawing.svg">
  <defs
     id="defs4349" />
  <sodipodi:namedview
     id="base"
     pagecolor="#ffffff"
     bordercolor="#666666"
     borderopacity="1.0"
     inkscape:pageopacity="0.0"
     inkscape:pageshadow="2"
     inkscape:zoom="0.49497475"
     inkscape:cx="212.81115"
     inkscape:cy="128.32653"
     inkscape:document-units="px"
     inkscape:current-layer="layer1"
     showgrid="false"
     fit-margin-top="0"
     fit-margin-left="0"
     fit-margin-right="0"
     fit-margin-bottom="0"
     inkscape:window-width="1317"
     inkscape:window-height="744"
     inkscape:window-x="49"
     inkscape:window-y="24"
     inkscape:window-maximized="1" />
  <metadata
     id="metadata4352">
    <rdf:RDF>
      <cc:Work
         rdf:about="">
        <dc:format>image/svg+xml</dc:format>
        <dc:type
           rdf:resource="http://purl.org/dc/dcmitype/StillImage" />
        <dc:title></dc:title>
      </cc:Work>
    </rdf:RDF>
  </metadata>
  <g
     inkscape:label="Layer 1"
     inkscape:groupmode="layer"
     id="layer1"
     transform="translate(-6.7142792,-24.147923)">
    <rect
       inkscape:export-ydpi="90"
       inkscape:export-xdpi="90"
       inkscape:export-filename="/media/craig/EMTEC C450/Logo.png"
       ry="0.68623412"
       rx="4.5045605"
       y="29.147923"
       x="11.714279"
       height="315"
       width="579.42859"
       id="rect3544"
       style="opacity:1;fill:none;fill-opacity:1;stroke:#000000;stroke-width:10;stroke-miterlimit:4;stroke-dasharray:none" />
    <g
       style="fill:#000000;stroke:none"
       transform="matrix(1.2311102,0,0,1.2311102,-65.12481,-205.23785)"
       id="g4389"
       inkscape:export-filename="/media/craig/EMTEC C450/Logo.png"
       inkscape:export-xdpi="90"
       inkscape:export-ydpi="90">
      <path
         style="opacity:1;fill:#000000;fill-opacity:1;stroke:none;stroke-width:6;stroke-miterlimit:4;stroke-dasharray:none"
         d="m 284.69531,75.378906 0,102.316404 15.02539,0 0,-44.52929 11.69336,0 0,44.52929 15.02344,0 0,-102.316404 -15.02344,0 0,42.287114 -11.69336,0 0,-42.287114 -15.02539,0 z m 97.625,0 0,102.316404 14.07422,0 0,-5.03125 c 1.54098,1.35969 2.74238,2.38071 3.60352,3.06055 2.76469,2.03953 5.27878,3.05859 7.54492,3.05859 3.39921,0 6.16475,-1.70039 8.29492,-5.09961 1.67695,-2.76469 2.51563,-6.02726 2.51563,-9.78906 l 0,-48.60937 c 0,-3.67115 -0.83868,-6.95676 -2.51563,-9.85743 -2.22082,-3.35389 -4.98635,-5.03125 -8.29492,-5.03125 -1.40501,0 -2.71964,0.33969 -3.94336,1.01954 -2.26614,0.9971 -4.667,2.69749 -7.20508,5.0996 l 0,-31.136714 -14.07422,0 z m -227.87695,0.523438 c -2.24495,0 -4.05078,0.136938 -4.05078,0.308594 l 0,36.722652 c 0,0.17166 1.80583,0.3086 4.05078,0.3086 l 7.13672,0 c 2.24494,0 4.05273,-0.13694 4.05273,-0.3086 l 0,-36.722652 c 0,-0.171656 -1.80779,-0.308594 -4.05273,-0.308594 l -7.13672,0 z m 356.70898,6.818359 0,18.832027 -7.13867,0 0,12.64454 7.13867,0 0,39.02343 c 0,6.97972 0.70242,12.35149 2.10743,16.11328 2.35678,6.29988 7.02418,9.44922 14.0039,9.44922 2.26614,0 4.07977,-0.13626 5.43945,-0.4082 0.22662,-0.0453 0.56631,-0.13552 1.01954,-0.27148 0.49855,-0.13597 0.86127,-0.22617 1.08789,-0.27149 l 0,-13.80078 c -0.18129,0.0453 -0.45383,0.0894 -0.81641,0.13477 -0.36258,0.0453 -0.63511,0.0914 -0.81641,0.13671 -1.26904,0.1813 -2.4474,0.27149 -3.53515,0.27149 -1.94888,0 -3.24048,-1.51806 -3.875,-4.55469 -0.36258,-1.67694 -0.54297,-4.32925 -0.54297,-7.95508 l 0,-37.86718 9.58594,0 0,-12.64454 -9.58594,0 0,-18.832027 -14.07227,0 z M 93.207031,99.212891 c -0.121378,-0.121379 -1.496568,1.059069 -3.083984,2.646489 l -5.046875,5.04687 c -1.587416,1.58742 -2.767863,2.96261 -2.646484,3.08398 l 25.964842,25.9668 c 0.12138,0.12138 1.49852,-1.05907 3.08594,-2.64648 l 5.04492,-5.04688 c 1.58742,-1.58741 2.76786,-2.9626 2.64649,-3.08398 L 93.207031,99.212891 Z m 129.734379,0 -25.9668,25.966799 c -0.12138,0.12138 1.05907,1.49657 2.64648,3.08398 l 5.04688,5.04688 c 1.58741,1.58741 2.9626,2.76786 3.08398,2.64648 l 25.9668,-25.9668 c 0.12138,-0.12137 -1.05907,-1.49656 -2.64648,-3.08398 l -5.04688,-5.04687 c -1.58742,-1.58742 -2.96261,-2.767868 -3.08398,-2.646489 z m 131.50586,1.183589 c -4.66826,0 -8.15729,1.02102 -10.46875,3.06055 -4.62294,3.89777 -7.13897,9.56315 -7.54688,16.99609 l 0,38.2754 c 0.13597,3.44453 0.88446,6.7973 2.24414,10.06054 2.99131,6.66246 8.24789,9.99414 15.77149,9.99414 4.5776,0 8.08967,-1.01906 10.53711,-3.05859 2.44743,-1.99421 4.26105,-4.30682 5.43945,-6.93555 1.17839,-2.67405 1.88081,-5.86946 2.10742,-9.58594 l 0,-39.1582 c -0.13597,-3.21792 -0.88445,-6.45941 -2.24414,-9.72265 -3.03663,-6.61714 -8.31625,-9.92579 -15.83984,-9.92579 z m 92.86718,0 c -5.43874,0 -9.92575,1.99402 -13.46093,5.98243 -3.62583,4.07905 -5.43946,8.86163 -5.43946,14.3457 l 0,3.19531 14.07422,0 0,-3.60351 c 0,-0.95178 0.0902,-2.15319 0.27149,-3.60352 0.49855,-2.67405 1.74407,-4.00977 3.73828,-4.00977 1.67694,0 2.83227,0.76957 3.46679,2.31055 0.27194,0.90646 0.40821,2.44755 0.40821,4.62305 l 0,8.36133 c -0.0906,0.22661 -0.20388,0.45307 -0.33985,0.67968 -0.13597,0.1813 -0.33939,0.38667 -0.61132,0.61329 -0.27194,0.22661 -0.54447,0.43003 -0.81641,0.61132 l -1.01953,0.61133 c -0.45323,0.22662 -0.83899,0.43199 -1.15625,0.61328 l -1.35938,0.67969 c -0.58919,0.31726 -1.04211,0.56676 -1.35937,0.74805 -4.71358,2.49275 -8.38495,5.36956 -11.01367,8.63281 -3.89777,4.84955 -5.84571,11.12715 -5.84571,18.83203 0,6.97972 1.44895,12.07895 4.34961,15.29688 1.85824,2.31146 4.17085,3.46679 6.93555,3.46679 2.71937,0 5.18934,-0.88475 7.41016,-2.65234 1.58629,-1.26904 2.87789,-2.7871 3.875,-4.55469 l 0.95117,0 c 0,2.99131 0.43183,5.03139 1.29297,6.11914 l 13.73242,0 c -0.63452,-3.89776 -0.95313,-8.31762 -0.95313,-13.25781 l 0,-46.77148 c 0,-4.9402 -1.72148,-9.06448 -5.16601,-12.37305 -3.39922,-3.26325 -7.38724,-4.89649 -11.96485,-4.89649 z m 54.79493,0 c -4.26035,0 -7.84153,1.36071 -10.74219,4.08008 -0.99711,0.99711 -1.78971,2.01617 -2.37891,3.0586 -0.54387,1.04242 -0.86052,1.8811 -0.95117,2.51562 l 0,-8.49805 -14.07227,0 0,76.14258 14.07227,0 0,-52.89258 c 0,-2.94598 1.01906,-5.27968 3.05859,-7.00195 1.63163,-1.54098 3.98836,-2.31055 7.07032,-2.31055 1.54097,0 2.85561,0.18039 3.94336,0.54297 l 0,-15.63672 z m -147.66211,12.30664 c 1.31436,0 2.33538,0.36273 3.06054,1.0879 1.1784,1.49565 1.76758,3.46662 1.76758,5.91406 l 0,0.74804 0,38.2754 c 0.0453,0.36258 0.0664,0.7253 0.0664,1.08789 0,1.08774 -0.15735,2.0377 -0.47461,2.85351 -0.63452,2.49276 -2.10846,3.74024 -4.41992,3.74024 -1.22372,0 -2.19867,-0.36273 -2.92383,-1.08789 -1.22372,-1.5863 -1.83399,-3.5362 -1.83399,-5.84766 l 0,-0.74609 0,-38.2754 c -0.0453,-0.36258 -0.0684,-0.7253 -0.0684,-1.08789 0,-1.04242 0.15931,-1.97129 0.47657,-2.78711 0.67984,-2.5834 2.12879,-3.87499 4.34961,-3.875 z m 46.09375,0.95118 c 1.04242,0 1.92717,0.45291 2.65234,1.35937 0.77049,0.86114 1.1543,1.94931 1.1543,3.26367 l 0,42.69336 c 0,1.31437 -0.38381,2.42558 -1.1543,3.33203 -0.72517,0.86114 -1.60992,1.29102 -2.65234,1.29102 -1.08775,0 -2.0627,-0.42988 -2.92383,-1.29102 -0.81581,-0.90645 -1.22266,-2.01766 -1.22266,-3.33203 l 0,-42.69336 c 0,-1.13307 0.42988,-2.17517 1.29102,-3.12695 0.86113,-0.9971 1.81304,-1.49609 2.85547,-1.49609 z m -242.80079,10.68554 c -28.61933,3.9e-4 -51.81879,23.20098 -51.81835,51.82032 0.0147,0.15988 0.0353,0.30828 0.0508,0.46679 -1.12669,23.89711 22.11796,39.75681 21.76172,59.00782 0,9.42877 0.22108,17.01953 0.49609,17.01953 l 0.25781,0 58.57031,0 0.25782,0 c 0.275,0 0.49609,-7.59076 0.49609,-17.01953 -0.35625,-19.25101 22.88842,-35.11071 21.76172,-59.00782 0.0155,-0.15851 0.0361,-0.30691 0.0508,-0.46679 4.3e-4,-28.61934 -23.19902,-51.81993 -51.81836,-51.82032 -0.0111,0 -0.0219,0.002 -0.0332,0.002 -0.0111,0 -0.0222,-0.002 -0.0332,-0.002 z m 292.63282,16.57618 0,19.51171 c 0,1.31437 -0.56615,2.42363 -1.69922,3.33008 -1.13307,0.86114 -2.51486,1.29297 -4.14649,1.29297 -1.49565,0 -2.56079,-0.97494 -3.19531,-2.92383 -0.45323,-1.31436 -0.67969,-2.71919 -0.67969,-4.21484 0,-3.80712 0.79261,-7.22899 2.37891,-10.26563 1.63162,-3.08195 4.07855,-5.32546 7.3418,-6.73046 z M 57.552734,158.62695 c -0.171655,0 -0.310546,1.80779 -0.310546,4.05274 l 0,7.13672 c 0,2.24494 0.138891,4.05273 0.310546,4.05273 l 36.720704,0 c 0.171655,0 0.310546,-1.80779 0.310546,-4.05273 l 0,-7.13672 c 0,-2.24495 -0.138891,-4.05274 -0.310546,-4.05274 l -36.720704,0 z m 164.320316,0 c -0.17166,0 -0.3086,1.80779 -0.3086,4.05274 l 0,7.13672 c 0,2.24494 0.13694,4.05273 0.3086,4.05273 l 36.72265,0 c 0.17166,0 0.3086,-1.80779 0.3086,-4.05273 l 0,-7.13672 c 0,-2.24495 -0.13694,-4.05274 -0.3086,-4.05274 l -36.72265,0 z m 62.82226,35.09961 0,102.31641 13.9375,0 0,-68.66406 0.81641,0 0.54297,4.34961 9.65429,64.31445 6.39063,0 9.58594,-64.31445 0.54297,-4.34961 0.88476,0 0,68.66406 13.86719,0 0,-102.31641 -18.35547,0 -8.90625,46.77344 -0.67969,5.4375 -0.27148,0 -0.74805,-5.4375 -8.90625,-46.77344 -18.35547,0 z m 112.31055,0 0,102.31641 14.07226,0 0,-26.31055 1.76758,-4.48633 0.47657,-1.08789 0.67968,0 0.27149,1.08789 6.93554,30.79688 13.52735,0 -12.7793,-51.39649 10.12891,-24.74609 -12.64453,0 -6.86719,19.91992 -0.81641,2.44727 -0.67969,0 0,-48.54102 -14.07226,0 z m -26.65039,25.01758 c -5.43874,0 -9.92576,1.99401 -13.46094,5.98242 -3.62583,4.07906 -5.4375,8.86164 -5.4375,14.34571 l 0,3.19531 14.07227,0 0,-3.60352 c 0,-0.95178 0.0902,-2.15318 0.27148,-3.60351 0.49855,-2.67405 1.74603,-4.01172 3.74024,-4.01172 1.67694,0 2.83227,0.77152 3.46679,2.3125 0.27194,0.90646 0.40821,2.44755 0.40821,4.62305 l 0,8.36132 c -0.0906,0.22662 -0.20388,0.45308 -0.33985,0.67969 -0.13597,0.18129 -0.34134,0.38471 -0.61328,0.61133 -0.27194,0.22661 -0.54252,0.43199 -0.81445,0.61328 l -1.01953,0.61133 c -0.45323,0.22661 -0.83899,0.43003 -1.15625,0.61133 l -1.35938,0.67968 c -0.5892,0.31726 -1.04407,0.56676 -1.36133,0.74805 -4.71357,2.49276 -8.38299,5.37152 -11.01172,8.63477 -3.89776,4.84954 -5.84765,11.12714 -5.84765,18.83203 0,6.97972 1.4509,12.077 4.35156,15.29492 1.85824,2.31146 4.1689,3.46875 6.93359,3.46875 2.71938,0 5.18934,-0.88475 7.41016,-2.65234 1.5863,-1.26904 2.8779,-2.7871 3.875,-4.55469 l 0.95313,0 c 0,2.99131 0.42988,5.03139 1.29101,6.11914 l 13.73242,0 c -0.63452,-3.89777 -0.95117,-8.31762 -0.95117,-13.25781 l 0,-46.77344 c 0,-4.94019 -1.72343,-9.06448 -5.16797,-12.37305 -3.39921,-3.26324 -7.38723,-4.89453 -11.96484,-4.89453 z m 87.29297,0 c -4.66826,0 -8.15924,1.01907 -10.47071,3.05859 -4.7589,3.94309 -7.34209,9.60847 -7.75,16.9961 l 0,38.27539 c 0.13597,3.53518 0.86142,6.8899 2.17579,10.0625 2.9913,6.66246 8.29396,9.99414 15.9082,9.99414 4.57761,0 8.08967,-1.02102 10.53711,-3.06055 2.49276,-1.9942 4.32942,-4.30487 5.50781,-6.93359 1.22372,-2.62873 1.94917,-5.82414 2.17578,-9.58594 l 0,-8.76953 -13.05469,0 0,8.29297 c 0,1.54098 -0.20342,2.85561 -0.61132,3.94336 -0.63452,2.49276 -2.10651,3.74023 -4.41797,3.74023 -1.22372,0 -2.19866,-0.36272 -2.92383,-1.08789 -1.35969,-1.76759 -2.10817,-3.96698 -2.24414,-6.5957 l 0,-16.51953 23.25195,0 0,-22.16211 c -0.13597,-3.21792 -0.88445,-6.45941 -2.24414,-9.72266 -3.03663,-6.61713 -8.31625,-9.92578 -15.83984,-9.92578 z m 55.88281,0 c -4.26035,0 -7.84152,1.36071 -10.74219,4.08008 -0.9971,0.9971 -1.78971,2.01617 -2.3789,3.05859 -0.54388,1.04243 -0.86053,1.88111 -0.95118,2.51563 l 0,-8.49805 -14.07421,0 0,76.14258 14.07421,0 0,-52.89258 c 0,-2.94598 1.01907,-5.27968 3.0586,-7.00195 1.63162,-1.54098 3.98836,-2.3125 7.07031,-2.3125 1.54098,0 2.85561,0.18234 3.94336,0.54492 l 0,-15.63672 z m 22.57031,0 c -5.98261,0.13597 -10.53678,2.46967 -13.66406,7.00195 -2.31147,3.48986 -3.46875,8.02295 -3.46875,13.59766 0,4.7589 1.42786,9.26895 4.2832,13.5293 1.5863,2.35679 4.60133,5.66543 9.04297,9.92578 1.90356,1.90356 3.35446,3.42161 4.35156,4.55469 0.99711,1.08774 1.9701,2.49257 2.92188,4.21484 0.9971,1.67694 1.49609,3.24107 1.49609,4.69141 0,6.11858 -1.60825,9.17773 -4.82617,9.17773 -2.49276,0 -4.30638,-1.42786 -5.43945,-4.2832 -0.77049,-1.81292 -1.15625,-4.23876 -1.15625,-7.27539 l -13.05274,0 c 0,5.93729 1.11122,10.81006 3.33204,14.61718 3.35389,5.75601 8.79281,8.63477 16.3164,8.63477 5.98262,0 10.65002,-2.31262 14.00391,-6.93555 2.62872,-3.67115 3.94336,-8.31551 3.94336,-13.93554 0,-4.21503 -1.40483,-8.61185 -4.21485,-13.18946 -1.49565,-2.35679 -4.41853,-5.7115 -8.76953,-10.0625 -2.71937,-2.53808 -4.75945,-4.71247 -6.11914,-6.52539 -2.03953,-2.49276 -3.05859,-4.87253 -3.05859,-7.13867 0,-2.53808 0.27058,-4.48797 0.81445,-5.84766 0.63452,-2.03952 1.81289,-3.05859 3.53516,-3.05859 1.85823,0 3.1959,1.01907 4.01172,3.05859 0.36258,1.22372 0.54296,3.17361 0.54296,5.84766 l 13.1211,0 c 0,-5.93729 -0.92887,-10.47038 -2.78711,-13.59766 -2.7647,-4.66825 -7.61443,-7.00195 -14.54883,-7.00195 l -0.61133,0 z m -78.45312,12.30469 c 1.31436,0 2.33343,0.36272 3.05859,1.08789 1.31436,1.63162 1.9707,3.85209 1.9707,6.66211 l 0,10.74219 -10.19726,0 0,-10.74219 c 0.13597,-1.76759 0.36243,-3.05919 0.67969,-3.875 0.81581,-2.5834 2.31278,-3.875 4.48828,-3.875 z m -84.23242,28.21484 0,19.50977 c 0,1.31436 -0.5681,2.42557 -1.70118,3.33203 -1.13307,0.86113 -2.51486,1.29101 -4.14648,1.29101 -1.49565,0 -2.56079,-0.97299 -3.19531,-2.92187 -0.45323,-1.31436 -0.67969,-2.71919 -0.67969,-4.21484 0,-3.80712 0.79261,-7.229 2.37891,-10.26563 1.63162,-3.08195 4.0805,-5.32546 7.34375,-6.73047 z m -244.92774,0.7793 c -0.275,0 -0.49609,1.80779 -0.49609,4.05273 l 0,7.13672 c 0,2.24495 0.22109,4.05274 0.49609,4.05274 l 58.82813,0 c 0.27499,0 0.49609,-1.80779 0.49609,-4.05274 l 0,-7.13672 c 0,-2.24494 -0.2211,-4.05273 -0.49609,-4.05273 l -58.82813,0 z m 0,22.63281 c -0.275,0 -0.49609,1.80779 -0.49609,4.05274 l 0,7.13671 c 0,2.24495 0.22109,4.05079 0.49609,4.05079 l 58.82813,0 c 0.27499,0 0.49609,-1.80584 0.49609,-4.05079 l 0,-7.13671 c 0,-2.24495 -0.2211,-4.05274 -0.49609,-4.05274 l -58.82813,0 z"
         transform="matrix(0.81227497,0,0,0.81227497,52.899253,166.70957)"
         id="rect3430"
         inkscape:connector-curvature="0" />
    </g>
  </g>
</svg>
