<?xml version="1.0" encoding="UTF-8" standalone="no"?>
<!-- Created with Inkscape (http://www.inkscape.org/) -->

<svg
   xmlns:dc="http://purl.org/dc/elements/1.1/"
   xmlns:cc="http://creativecommons.org/ns#"
   xmlns:rdf="http://www.w3.org/1999/02/22-rdf-syntax-ns#"
   xmlns:svg="http://www.w3.org/2000/svg"
   xmlns="http://www.w3.org/2000/svg"
   xmlns:sodipodi="http://sodipodi.sourceforge.net/DTD/sodipodi-0.dtd"
   xmlns:inkscape="http://www.inkscape.org/namespaces/inkscape"
   width="50mm"
   height="26.8125mm"
   viewBox="0 0 177.16535 95.004921"
   id="svg4590"
   version="1.1"
   inkscape:version="0.91 r13725"
   sodipodi:docname="mono-logo.svg">
  <defs
     id="defs4592" />
  <sodipodi:namedview
     id="base"
     pagecolor="#ffffff"
     bordercolor="#666666"
     borderopacity="1.0"
     inkscape:pageopacity="0.0"
     inkscape:pageshadow="2"
     inkscape:zoom="4.4816889"
     inkscape:cx="88.582677"
     inkscape:cy="47.502461"
     inkscape:document-units="px"
     inkscape:current-layer="layer1"
     showgrid="false"
     fit-margin-top="0"
     fit-margin-left="0"
     fit-margin-right="0"
     fit-margin-bottom="0"
     inkscape:window-width="1317"
     inkscape:window-height="744"
     inkscape:window-x="49"
     inkscape:window-y="24"
     inkscape:window-maximized="1" />
  <metadata
     id="metadata4595">
    <rdf:RDF>
      <cc:Work
         rdf:about="">
        <dc:format>image/svg+xml</dc:format>
        <dc:type
           rdf:resource="http://purl.org/dc/dcmitype/StillImage" />
        <dc:title></dc:title>
      </cc:Work>
    </rdf:RDF>
  </metadata>
  <g
     inkscape:label="Layer 1"
     inkscape:groupmode="layer"
     id="layer1"
     transform="translate(0,-957.35728)">
    <path
       style="opacity:1;fill:#000000;fill-opacity:1;stroke:none;stroke-width:6;stroke-miterlimit:4;stroke-dasharray:none"
       d="M 1.3776178,957.35728 C 0.61458883,957.35728 0,957.4498 0,957.56446 l 0,94.59094 c 0,0.1147 0.61458883,0.2068 1.3776178,0.2068 l 174.4105522,0 c 0.76303,0 1.37718,-0.092 1.37718,-0.2068 l 0,-94.59094 c 0,-0.11466 -0.61415,-0.20718 -1.37718,-0.20718 l -174.4105522,0 z m 80.8658612,13.94355 4.531644,0 0,12.75366 3.526873,0 0,-12.75366 4.53121,0 0,30.85857 -4.53121,0 0,-13.4301 -3.526873,0 0,13.4301 -4.531644,0 0,-30.85857 z m 29.444231,0 4.24444,0 0,9.39072 c 0.76549,-0.72449 1.49,-1.23693 2.17347,-1.53766 0.36908,-0.20504 0.76528,-0.30753 1.18904,-0.30753 0.99787,0 1.83196,0.50578 2.50176,1.51733 0.50578,0.87485 0.75867,1.866 0.75867,2.97322 l 0,14.66027 c 0,1.13456 -0.25289,2.11902 -0.75867,2.95292 -0.64246,1.0252 -1.47655,1.5376 -2.50176,1.5376 -0.68348,0 -1.44215,-0.3074 -2.27599,-0.9226 -0.25972,-0.205 -0.62176,-0.5129 -1.08652,-0.923 l 0,1.5173 -4.24444,0 0,-30.85857 z m -68.728139,0.15744 2.152282,0 c 0.67708,0 1.222337,0.0417 1.222337,0.0934 l 0,11.07543 c 0,0.0518 -0.545257,0.0934 -1.222337,0.0934 l -2.152282,0 c -0.677082,0 -1.222337,-0.0417 -1.222337,-0.0934 l 0,-11.07543 c 0,-0.0518 0.545255,-0.0934 1.222337,-0.0934 z m 107.583839,2.0567 4.24444,0 0,5.68001 2.89105,0 0,3.81364 -2.89105,0 0,11.42103 c 0,1.09356 0.0546,1.89305 0.16393,2.39882 0.19137,0.91586 0.58091,1.37373 1.1687,1.37373 0.32807,0 0.68345,-0.0271 1.06619,-0.0817 0.0547,-0.0137 0.13676,-0.0274 0.24612,-0.0411 0.10935,-0.0137 0.19143,-0.0274 0.24611,-0.0411 l 0,4.1622 c -0.0684,0.014 -0.17793,0.041 -0.3283,0.082 -0.13669,0.041 -0.23918,0.068 -0.30753,0.082 -0.41008,0.082 -0.95668,0.1232 -1.64016,0.1232 -2.1051,0 -3.5133,-0.9499 -4.22411,-2.8499 -0.42376,-1.13457 -0.63539,-2.7544 -0.63539,-4.8595 l 0,-11.76965 -2.15315,0 0,-3.81364 2.15315,0 0,-5.68001 z m -126.053413,4.97455 7.831435,7.83101 c 0.03661,0.0366 -0.319684,0.4516 -0.798456,0.93037 l -1.521649,1.52209 c -0.478769,0.47877 -0.89377,0.83462 -0.930377,0.79802 l -7.831436,-7.83144 c -0.03661,-0.0366 0.319254,-0.45117 0.798022,-0.92994 l 1.522083,-1.52208 c 0.47877,-0.47877 0.893771,-0.83464 0.930378,-0.79803 z m 39.128197,0 c 0.03661,-0.0366 0.45161,0.31926 0.930377,0.79803 l 1.522083,1.52208 c 0.47877,0.47876 0.834628,0.89334 0.798022,0.92994 l -7.831435,7.83144 c -0.03661,0.0366 -0.451608,-0.31925 -0.930378,-0.79802 l -1.521648,-1.52209 c -0.47877,-0.47877 -0.835063,-0.89377 -0.798456,-0.93037 l 7.831435,-7.83101 z m 39.662806,0.35684 c 2.26914,0 3.86147,0.99781 4.77732,2.99356 0.41009,0.98421 0.63591,1.9616 0.67692,2.93214 l 0,11.8103 c -0.0684,1.1209 -0.28042,2.08455 -0.63583,2.89105 -0.3554,0.79279 -0.90201,1.49029 -1.64016,2.09169 -0.73815,0.6152 -1.79763,0.9226 -3.17825,0.9226 -2.26914,0 -3.854807,-1.0049 -4.756992,-3.01429 -0.410087,-0.9842 -0.635473,-1.99577 -0.676482,-3.03465 l 0,-11.54386 c 0.123026,-2.2418 0.881697,-3.95037 2.275984,-5.12594 0.69715,-0.61513 1.74953,-0.9226 3.15749,-0.9226 z m 28.00865,0 c 1.38062,0 2.58384,0.49203 3.60905,1.47624 1.03888,0.99787 1.55798,2.24191 1.55798,3.73189 l 0,14.10662 c 0,1.48997 0.0958,2.82279 0.28721,3.99829 l -4.14194,0 c -0.25972,-0.328 -0.38927,-0.943 -0.38927,-1.8451 l -0.28721,0 c -0.30073,0.5331 -0.69027,0.9909 -1.1687,1.3737 -0.66981,0.5331 -1.41472,0.7997 -2.2349,0.7997 -0.83384,0 -1.53127,-0.3487 -2.09172,-1.0458 -0.87485,-0.9706 -1.31231,-2.50832 -1.31231,-4.61343 0,-2.32381 0.58786,-4.21695 1.76344,-5.67958 0.79283,-0.98421 1.90022,-1.85246 3.32185,-2.60428 0.0957,-0.0547 0.23234,-0.12967 0.41004,-0.22535 l 0.41004,-0.20502 c 0.0957,-0.0547 0.21193,-0.11635 0.34862,-0.18469 l 0.30753,-0.18426 c 0.082,-0.0547 0.1641,-0.11635 0.24611,-0.18469 0.082,-0.0684 0.14369,-0.13002 0.1847,-0.18469 0.041,-0.0684 0.0752,-0.13668 0.10251,-0.20503 l 0,-2.52209 c 0,-0.65614 -0.0413,-1.12067 -0.12328,-1.39406 -0.19137,-0.46476 -0.53966,-0.69724 -1.04543,-0.69724 -0.60146,0 -0.97768,0.4033 -1.12804,1.20979 -0.0547,0.43743 -0.0817,0.79947 -0.0817,1.08653 l 0,1.08695 -4.24444,0 0,-0.96368 c 0,-1.65401 0.5466,-3.09637 1.64016,-4.32663 1.06622,-1.20291 2.41941,-1.80409 4.05975,-1.80409 z m 16.52664,0 0,4.7159 c -0.32807,-0.10935 -0.7247,-0.16392 -1.18947,-0.16392 -0.92952,0 -1.64028,0.23204 -2.13238,0.6968 -0.61513,0.51945 -0.92259,1.22354 -0.92259,2.11206 l 0,15.9522 -4.24445,0 0,-22.96442 4.24445,0 0,2.56276 c 0.0273,-0.19137 0.12316,-0.44426 0.2872,-0.75866 0.1777,-0.3144 0.41684,-0.62187 0.71757,-0.92259 0.87485,-0.82017 1.95473,-1.23013 3.23967,-1.23013 z m -44.53529,3.71113 c -0.66981,0 -1.10726,0.38954 -1.3123,1.16871 -0.0957,0.24605 -0.1436,0.52644 -0.1436,0.84084 0,0.10936 0.007,0.2185 0.0207,0.32786 l 0,11.54386 0,0.22578 c 0,0.69715 0.18456,1.28501 0.55364,1.76344 0.21871,0.21871 0.51242,0.32786 0.8815,0.32786 0.69714,0 1.14126,-0.37579 1.33263,-1.12761 0.0957,-0.24606 0.1436,-0.53311 0.1436,-0.86118 0,-0.10935 -0.007,-0.21893 -0.0203,-0.32829 l 0,-11.54386 0,-0.22535 c 0,-0.73815 -0.1779,-1.33267 -0.53331,-1.78377 -0.21871,-0.21871 -0.52618,-0.32829 -0.92259,-0.32829 z m 13.90203,0.2872 c -0.3144,0 -0.60145,0.15041 -0.86117,0.45114 -0.25972,0.28705 -0.38971,0.60118 -0.38971,0.94292 l 0,12.87692 c 0,0.39642 0.1229,0.73139 0.36895,1.00478 0.25972,0.25972 0.55386,0.38928 0.88193,0.38928 0.3144,0 0.58061,-0.12956 0.79932,-0.38928 0.23238,-0.27339 0.34862,-0.60836 0.34862,-1.00478 l 0,-12.87692 c 0,-0.39642 -0.11624,-0.72429 -0.34862,-0.98402 -0.21871,-0.27339 -0.48492,-0.41004 -0.79932,-0.41004 z m -73.229499,3.2228 c 0.0033,0 0.0067,4.5e-4 0.0099,4.5e-4 0.0034,0 0.0065,-4.5e-4 0.0099,-4.5e-4 8.631677,1.2e-4 15.62883,6.99746 15.628699,15.62911 -0.0045,0.048 -0.0109,0.093 -0.01557,0.141 0.339815,7.2075 -6.670696,11.9904 -6.56325,17.7966 0,2.8437 -0.06671,5.1329 -0.149656,5.1329 l -0.07785,0 -17.664632,0 -0.07786,0 c -0.08294,0 -0.150088,-2.2892 -0.150088,-5.1329 0.107445,-5.8062 -6.902632,-10.5891 -6.562818,-17.7966 -0.0047,-0.048 -0.01116,-0.093 -0.01557,-0.141 -1.31e-4,-8.63165 6.997026,-15.62899 15.628699,-15.62911 z m 88.259149,4.99922 c -0.98421,0.42375 -1.72247,1.10035 -2.21457,2.02987 -0.47844,0.91586 -0.71757,1.94826 -0.71757,3.0965 0,0.45109 0.0683,0.8748 0.20502,1.27121 0.19137,0.5878 0.51259,0.88151 0.96368,0.88151 0.4921,0 0.90871,-0.12999 1.25045,-0.38971 0.34174,-0.27339 0.51299,-0.60793 0.51299,-1.00435 l 0,-5.88503 z m -118.475876,5.34177 11.074998,0 c 0.05177,0 0.09343,0.54526 0.09343,1.22234 l 0,2.15228 c 0,0.6771 -0.04165,1.2223 -0.09343,1.2223 l -11.074998,0 c -0.05177,0 -0.09343,-0.5452 -0.09343,-1.2223 l 0,-2.15228 c 0,-0.67708 0.04165,-1.22234 0.09343,-1.22234 z m 49.559585,0 11.074998,0 c 0.05177,0 0.09343,0.54526 0.09343,1.22234 l 0,2.15228 c 0,0.6771 -0.04165,1.2223 -0.09343,1.2223 l -11.074998,0 c -0.05177,0 -0.09343,-0.5452 -0.09343,-1.2223 l 0,-2.15228 c 0,-0.67708 0.04165,-1.22234 0.09343,-1.22234 z m 18.94709,10.58622 5.536418,0 2.686028,14.1066 0.22535,1.6406 0.08218,0 0.20502,-1.6406 2.686029,-14.1066 5.535985,0 0,30.8586 -4.18259,0 0,-20.7092 -0.266873,0 -0.163929,1.3123 -2.891049,19.3969 -1.927366,0 -2.911808,-19.3969 -0.163931,-1.3123 -0.246112,0 0,20.7092 -4.203352,0 0,-30.8586 z m 33.873361,0 4.24401,0 0,14.6399 0.20545,0 0.24568,-0.7383 2.07097,-6.0074 3.81407,0 -3.05541,7.4633 3.85473,15.5011 -4.08008,0 -2.09173,-9.2882 -0.0817,-0.3283 -0.20502,0 -0.1436,0.3283 -0.53331,1.353 0,7.9352 -4.24401,0 0,-30.8586 z m -8.03776,7.5455 c 1.38063,0 2.58341,0.4921 3.60863,1.4763 1.03888,0.9979 1.55841,2.2419 1.55841,3.7319 l 0,14.1066 c 0,1.49 0.0958,2.8227 0.2872,3.9983 l -4.14193,0 c -0.25972,-0.328 -0.38971,-0.943 -0.38971,-1.8452 l -0.28721,0 c -0.30072,0.5332 -0.69026,0.991 -1.1687,1.3738 -0.6698,0.5331 -1.41472,0.7997 -2.23489,0.7997 -0.83384,0 -1.53085,-0.3487 -2.0913,-1.0458 -0.87485,-0.9706 -1.3123,-2.5083 -1.3123,-4.6134 0,-2.3239 0.58786,-4.217 1.76343,-5.6796 0.79283,-0.9842 1.89979,-1.8525 3.32142,-2.6043 0.0957,-0.055 0.23234,-0.1297 0.41004,-0.2254 l 0.41048,-0.205 c 0.0957,-0.055 0.21149,-0.1163 0.34818,-0.1847 l 0.30754,-0.1847 c 0.082,-0.055 0.16409,-0.1159 0.2461,-0.1842 0.082,-0.068 0.14369,-0.13 0.1847,-0.1847 0.041,-0.068 0.0752,-0.1367 0.10251,-0.205 l 0,-2.5221 c 0,-0.6562 -0.0408,-1.1207 -0.12284,-1.3941 -0.19137,-0.4647 -0.54009,-0.6972 -1.04586,-0.6972 -0.60146,0 -0.97725,0.4033 -1.12762,1.2098 -0.0547,0.4374 -0.0822,0.7994 -0.0822,1.0865 l 0,1.0869 -4.24444,0 0,-0.9636 c 0,-1.654 0.54703,-3.0964 1.64059,-4.3267 1.06622,-1.2029 2.41941,-1.8041 4.05975,-1.8041 z m 26.3274,0 c 2.26914,0 3.86147,0.9979 4.77732,2.9936 0.41009,0.9842 0.63591,1.9616 0.67692,2.9321 l 0,6.6844 -7.01265,0 0,4.9823 c 0.041,0.7929 0.26682,1.4562 0.67691,1.9893 0.21871,0.2187 0.51242,0.3278 0.8815,0.3278 0.69714,0 1.14126,-0.3758 1.33263,-1.1276 0.12303,-0.3281 0.18469,-0.7247 0.18469,-1.1895 l 0,-2.5013 3.93692,0 0,2.645 c -0.0683,1.1345 -0.28708,2.0982 -0.65616,2.891 -0.3554,0.7928 -0.9091,1.4898 -1.66092,2.0913 -0.73815,0.6151 -1.79763,0.923 -3.17825,0.923 -2.29648,0 -3.8959,-1.0049 -4.79809,-3.0143 -0.39641,-0.9569 -0.61514,-1.9684 -0.65615,-3.0347 l 0,-11.5438 c 0.12303,-2.2281 0.90254,-3.9367 2.33784,-5.126 0.69715,-0.6151 1.74953,-0.9226 3.15749,-0.9226 z m 16.8545,0 0,4.716 c -0.32807,-0.1094 -0.72471,-0.164 -1.18947,-0.164 -0.92952,0 -1.64028,0.2321 -2.13238,0.6968 -0.61513,0.5195 -0.9226,1.2236 -0.9226,2.1121 l 0,15.9522 -4.24444,0 0,-22.9644 4.24444,0 0,2.5627 c 0.0273,-0.1913 0.12317,-0.4442 0.28721,-0.7586 0.1777,-0.3144 0.41684,-0.6219 0.71757,-0.9226 0.87485,-0.8202 1.95473,-1.2302 3.23967,-1.2302 z m 6.8072,0 0.18469,0 c 2.09143,0 3.5542,0.7037 4.38804,2.1117 0.56045,0.9432 0.84041,2.3101 0.84041,4.1008 l -3.95724,0 c 0,-0.8065 -0.0546,-1.3939 -0.16393,-1.763 -0.24605,-0.6151 -0.64934,-0.923 -1.20979,-0.923 -0.51944,0 -0.87482,0.3079 -1.0662,0.923 -0.16403,0.4101 -0.24611,0.9975 -0.24611,1.763 0,0.6835 0.30747,1.4013 0.9226,2.1532 0.41008,0.5467 1.02544,1.2029 1.84561,1.9684 1.31227,1.3123 2.19384,2.3239 2.64494,3.0347 0.84751,1.3806 1.27121,2.7063 1.27121,3.9775 0,1.6951 -0.3962,3.0962 -1.18903,4.2034 -1.01154,1.3943 -2.41974,2.0917 -4.22411,2.0917 -2.26914,0 -3.90938,-0.8682 -4.92093,-2.6043 -0.6698,-1.1482 -1.00477,-2.6176 -1.00477,-4.4083 l 3.93691,0 c 0,0.9158 0.11624,1.6474 0.34862,2.1942 0.34174,0.8612 0.88834,1.2915 1.64017,1.2915 0.97053,0 1.4559,-0.9228 1.4559,-2.7682 0,-0.4374 -0.1504,-0.909 -0.45113,-1.4148 -0.28706,-0.5194 -0.58077,-0.9431 -0.8815,-1.2712 -0.30073,-0.3417 -0.73819,-0.7996 -1.3123,-1.3737 -1.33962,-1.2849 -2.24869,-2.2828 -2.72712,-2.9936 -0.86118,-1.2849 -1.29198,-2.6452 -1.29198,-4.0805 0,-1.6813 0.34872,-3.0483 1.04586,-4.1008 0.9432,-1.367 2.3168,-2.0706 4.12118,-2.1117 z m -23.6617,3.7112 c -0.65614,0 -1.10734,0.3895 -1.35339,1.1687 -0.0957,0.246 -0.16402,0.6356 -0.20502,1.1687 l 0,3.2397 3.07573,0 0,-3.2397 c 0,-0.8475 -0.19831,-1.5175 -0.59473,-2.0096 -0.21871,-0.2187 -0.52618,-0.3278 -0.92259,-0.3278 z m -25.4048,8.5092 c -0.98421,0.4238 -1.72247,1.1003 -2.21457,2.0299 -0.47843,0.9158 -0.71757,1.9478 -0.71757,3.096 0,0.4511 0.0683,0.8748 0.20502,1.2713 0.19137,0.5877 0.51259,0.8819 0.96368,0.8819 0.4921,0 0.90915,-0.13 1.25089,-0.3897 0.34173,-0.2734 0.51255,-0.6084 0.51255,-1.0048 l 0,-5.8846 z m -73.870948,0.2357 17.742919,0 c 0.08294,0 0.150088,0.5448 0.15009,1.2219 l 0,2.1527 c -2e-6,0.6771 -0.06715,1.2219 -0.15009,1.2219 l -17.742919,0 c -0.08294,0 -0.149656,-0.5448 -0.149656,-1.2219 l 0,-2.1527 c 0,-0.6771 0.06671,-1.2219 0.149656,-1.2219 z m 0,6.8258 17.742919,0 c 0.08294,0 0.150088,0.5448 0.15009,1.2219 l 0,2.1527 c -2e-6,0.6771 -0.06715,1.2219 -0.15009,1.2219 l -17.742919,0 c -0.08294,0 -0.149656,-0.5448 -0.149656,-1.2219 l 0,-2.1527 c 0,-0.6771 0.06671,-1.2219 0.149656,-1.2219 z"
       id="rect4209"
       inkscape:connector-curvature="0" />
  </g>
</svg>
