<?xml version="1.0" encoding="UTF-8" standalone="no"?>
<!-- Created with Inkscape (http://www.inkscape.org/) -->

<svg
   xmlns:dc="http://purl.org/dc/elements/1.1/"
   xmlns:cc="http://creativecommons.org/ns#"
   xmlns:rdf="http://www.w3.org/1999/02/22-rdf-syntax-ns#"
   xmlns:svg="http://www.w3.org/2000/svg"
   xmlns="http://www.w3.org/2000/svg"
   xmlns:sodipodi="http://sodipodi.sourceforge.net/DTD/sodipodi-0.dtd"
   xmlns:inkscape="http://www.inkscape.org/namespaces/inkscape"
   width="300"
   height="300"
   viewBox="0 0 300 300"
   id="svg4194"
   version="1.1"
   inkscape:version="0.91 r13725"
   sodipodi:docname="LogoNoTextCommitteeAlt.svg">
  <defs
     id="defs4196" />
  <sodipodi:namedview
     id="base"
     pagecolor="#ffffff"
     bordercolor="#666666"
     borderopacity="1.0"
     inkscape:pageopacity="0.0"
     inkscape:pageshadow="2"
     inkscape:zoom="1.0952595"
     inkscape:cx="24.915478"
     inkscape:cy="194.65039"
     inkscape:document-units="px"
     inkscape:current-layer="g4561"
     showgrid="false"
     units="px"
     fit-margin-top="0"
     fit-margin-left="0"
     fit-margin-right="0"
     fit-margin-bottom="0"
     inkscape:window-width="1325"
     inkscape:window-height="744"
     inkscape:window-x="41"
     inkscape:window-y="24"
     inkscape:window-maximized="1" />
  <metadata
     id="metadata4199">
    <rdf:RDF>
      <cc:Work
         rdf:about="">
        <dc:format>image/svg+xml</dc:format>
        <dc:type
           rdf:resource="http://purl.org/dc/dcmitype/StillImage" />
        <dc:title></dc:title>
      </cc:Work>
    </rdf:RDF>
  </metadata>
  <g
     inkscape:label="Layer 1"
     inkscape:groupmode="layer"
     id="layer1"
     transform="translate(-277.14286,-423.44116)">
    <g
       id="g4561"
       transform="translate(346.15912,-1523.797)"
       style="fill:#fce94f">
      <rect
         inkscape:export-ydpi="112.49997"
         inkscape:export-xdpi="112.49997"
         inkscape:export-filename="/home/craig/HobartMakerspace.png"
         ry="0.52284509"
         rx="1.8657942"
         y="1947.2382"
         x="-69.016258"
         height="300"
         width="300"
         id="rect4171"
         style="opacity:1;fill:#a40000;fill-opacity:1;stroke:none;stroke-width:6;stroke-miterlimit:4;stroke-dasharray:none" />
      <g
         inkscape:export-ydpi="112.49997"
         inkscape:export-xdpi="112.49997"
         inkscape:export-filename="/home/craig/HobartMakerspace.png"
         style="fill:#ffffff"
         transform="matrix(0.81243668,0,0,0.81243668,-412.30565,1827.2708)"
         id="g4173">
        <rect
           style="opacity:1;fill:#ffffff;fill-opacity:1;stroke:none;stroke-width:6;stroke-miterlimit:4;stroke-dasharray:none"
           id="rect4175"
           width="20.203051"
           height="49.497475"
           x="596.98999"
           y="185.14624"
           rx="4.2972016"
           ry="0.32857662" />
        <rect
           ry="0.32056254"
           rx="4.1923919"
           y="-337.77887"
           x="642.90558"
           height="49.497475"
           width="20.203051"
           id="rect4177"
           style="opacity:1;fill:#ffffff;fill-opacity:1;stroke:none;stroke-width:6;stroke-miterlimit:4;stroke-dasharray:none"
           transform="matrix(0.70710678,0.70710678,-0.70710678,0.70710678,0,0)" />
        <rect
           transform="matrix(0,1,-1,0,0,0)"
           style="opacity:1;fill:#ffffff;fill-opacity:1;stroke:none;stroke-width:6;stroke-miterlimit:4;stroke-dasharray:none"
           id="rect4179"
           width="20.203051"
           height="49.497475"
           x="294.80368"
           y="-740.8302"
           rx="4.2972016"
           ry="0.32857662" />
        <rect
           transform="matrix(-0.70710678,0.70710678,0.70710678,0.70710678,0,0)"
           style="opacity:1;fill:#ffffff;fill-opacity:1;stroke:none;stroke-width:6;stroke-miterlimit:4;stroke-dasharray:none"
           id="rect4181"
           width="20.203051"
           height="49.497475"
           x="-215.76633"
           y="520.89301"
           rx="4.1923919"
           ry="0.32056254" />
        <rect
           ry="0.32857662"
           rx="4.2972016"
           y="473.51529"
           x="294.80368"
           height="49.497475"
           width="20.203051"
           id="rect4183"
           style="opacity:1;fill:#ffffff;fill-opacity:1;stroke:none;stroke-width:6;stroke-miterlimit:4;stroke-dasharray:none"
           transform="matrix(0,1,1,0,0,0)" />
        <rect
           transform="matrix(0,1,-1,0,0,0)"
           style="opacity:1;fill:#ffffff;fill-opacity:1;stroke:none;stroke-width:6;stroke-miterlimit:4;stroke-dasharray:none"
           id="rect4185"
           width="20.203051"
           height="79.296974"
           x="429.23767"
           y="-646.59399"
           rx="4.2972016"
           ry="0.52639312" />
        <rect
           ry="0.52639312"
           rx="4.2972016"
           y="-646.59399"
           x="459.23767"
           height="79.296974"
           width="20.203051"
           id="rect4187"
           style="opacity:1;fill:#ffffff;fill-opacity:1;stroke:none;stroke-width:6;stroke-miterlimit:4;stroke-dasharray:none"
           transform="matrix(0,1,-1,0,0,0)" />
        <path
           style="opacity:1;fill:#ffffff;fill-opacity:1;stroke:none;stroke-width:6;stroke-miterlimit:4;stroke-dasharray:none"
           d="m 606.73047,249.35352 c -37.93669,5.1e-4 -68.69002,30.75471 -68.68945,68.6914 0.0194,0.21193 0.0479,0.40902 0.0684,0.61914 -1.4935,31.67707 29.31793,52.6984 28.8457,78.2168 0,12.49841 0.29367,22.56055 0.6582,22.56055 l 0.3418,0 77.63867,0 0.3418,0 c 0.36453,0 0.6582,-10.06214 0.6582,-22.56055 -0.47223,-25.5184 30.3392,-46.53973 28.8457,-78.2168 0.0205,-0.21012 0.0489,-0.40721 0.0684,-0.61914 5.7e-4,-37.93669 -30.75276,-68.69089 -68.68945,-68.6914 -0.0151,0 -0.0299,0.002 -0.0449,0.002 -0.0144,-1e-5 -0.0285,-0.002 -0.043,-0.002 z"
           id="path4189"
           inkscape:connector-curvature="0" />
      </g>
      <text
         sodipodi:linespacing="100%"
         id="text4450"
         y="1904.9901"
         x="-90.432289"
         style="font-size:40px;line-height:100%;font-family:sans-serif;letter-spacing:0px;word-spacing:0px;fill:#000000;stroke:#000000;stroke-width:1px;stroke-linecap:butt;stroke-linejoin:miter;stroke-opacity:1"
         xml:space="preserve"><tspan
           style="font-style:normal;font-variant:normal;font-weight:normal;font-stretch:normal;font-size:60.00000381px;line-height:100%;font-family:'League Gothic';-inkscape-font-specification:'League Gothic';fill:#000000;stroke:none"
           y="1904.9901"
           x="-90.432289"
           id="tspan4452"
           sodipodi:role="line">Logo Only (300x300)</tspan></text>
    </g>
  </g>
</svg>
