<?xml version="1.0" encoding="UTF-8" standalone="no"?>
<!-- Created with Inkscape (http://www.inkscape.org/) -->

<svg
   xmlns:dc="http://purl.org/dc/elements/1.1/"
   xmlns:cc="http://creativecommons.org/ns#"
   xmlns:rdf="http://www.w3.org/1999/02/22-rdf-syntax-ns#"
   xmlns:svg="http://www.w3.org/2000/svg"
   xmlns="http://www.w3.org/2000/svg"
   xmlns:sodipodi="http://sodipodi.sourceforge.net/DTD/sodipodi-0.dtd"
   xmlns:inkscape="http://www.inkscape.org/namespaces/inkscape"
   width="50.141113mm"
   height="50.141113mm"
   viewBox="0 0 177.66536 177.66536"
   id="svg4194"
   version="1.1"
   inkscape:version="0.91 r13725"
   sodipodi:docname="LogoForLaser.svg">
  <defs
     id="defs4196" />
  <sodipodi:namedview
     id="base"
     pagecolor="#ffffff"
     bordercolor="#666666"
     borderopacity="1.0"
     inkscape:pageopacity="0.0"
     inkscape:pageshadow="2"
     inkscape:zoom="1.0952595"
     inkscape:cx="-59.376859"
     inkscape:cy="85.706386"
     inkscape:document-units="px"
     inkscape:current-layer="g4561"
     showgrid="false"
     units="mm"
     fit-margin-top="5"
     fit-margin-left="5"
     fit-margin-right="5"
     fit-margin-bottom="5"
     inkscape:window-width="1325"
     inkscape:window-height="744"
     inkscape:window-x="41"
     inkscape:window-y="24"
     inkscape:window-maximized="1" />
  <metadata
     id="metadata4199">
    <rdf:RDF>
      <cc:Work
         rdf:about="">
        <dc:format>image/svg+xml</dc:format>
        <dc:type
           rdf:resource="http://purl.org/dc/dcmitype/StillImage" />
        <dc:title></dc:title>
      </cc:Work>
    </rdf:RDF>
  </metadata>
  <g
     inkscape:label="Layer 1"
     inkscape:groupmode="layer"
     id="layer1"
     transform="translate(-315.78392,-436.8318)">
    <g
       id="g4561"
       transform="translate(346.15912,-1523.797)"
       style="fill:#fce94f">
      <g
         id="g4194">
        <path
           id="rect4171"
           d="m -11.527192,1978.5953 139.969332,0 c 0.48834,0 0.88148,0.1102 0.88148,0.2471 l 0,141.2382 c 0,0.1369 -0.39314,0.247 -0.88148,0.247 l -139.969332,0 c -0.488338,0 -0.881477,-0.1101 -0.881477,-0.247 l 0,-141.2382 c 0,-0.1369 0.393139,-0.2471 0.881477,-0.2471 z"
           style="opacity:1;fill:none;fill-opacity:1;stroke:#000000;stroke-width:0.70866142;stroke-miterlimit:4;stroke-dasharray:none"
           inkscape:connector-curvature="0" />
        <path
           style="opacity:1;fill:none;fill-opacity:1;stroke:#000000;stroke-width:0.70866142;stroke-miterlimit:4;stroke-dasharray:none"
           d="m 56.198582,1992.9823 c -0.913761,0 -1.650389,0.057 -1.650389,0.127 l 0,18.746 c 0,0.07 0.736628,0.125 1.650389,0.125 l 4.45508,0 c 0.913761,0 1.650389,-0.055 1.650389,-0.125 l 0,-18.746 c 0,-0.07 -0.736628,-0.127 -1.650389,-0.127 l -4.45508,0 z"
           id="path4162"
           inkscape:connector-curvature="0" />
        <path
           style="opacity:1;fill:none;fill-opacity:1;stroke:#000000;stroke-width:0.70866142;stroke-miterlimit:4;stroke-dasharray:none"
           d="m 25.429055,2004.8182 c -0.0482,-0.048 -0.594243,0.4205 -1.224608,1.0508 l -3.207032,3.2071 c -0.630369,0.6303 -1.098981,1.1783 -1.050783,1.2265 l 13.259772,13.2598 c 0.0482,0.048 0.594239,-0.4204 1.224608,-1.0508 l 3.207032,-3.209 c 0.630357,-0.6304 1.098977,-1.1764 1.05078,-1.2246 l -13.259769,-13.2598 z"
           id="path4160"
           inkscape:connector-curvature="0" />
        <path
           style="opacity:1;fill:none;fill-opacity:1;stroke:#000000;stroke-width:0.70866142;stroke-miterlimit:4;stroke-dasharray:none"
           d="m 91.485692,2004.8182 -13.259758,13.2598 c -0.0482,0.048 0.420408,0.5942 1.05078,1.2246 l 3.207028,3.209 c 0.630369,0.6304 1.176411,1.099 1.224612,1.0508 l 13.259769,-13.2598 c 0.0482,-0.048 -0.420419,-0.5962 -1.050791,-1.2265 l -3.207028,-3.2071 c -0.630362,-0.6303 -1.176411,-1.099 -1.224612,-1.0508 z"
           id="path4158"
           inkscape:connector-curvature="0" />
        <path
           style="opacity:1;fill:none;fill-opacity:1;stroke:#000000;stroke-width:0.70866142;stroke-miterlimit:4;stroke-dasharray:none"
           d="m 58.288431,2017.6268 c -14.561177,2e-4 -26.365457,11.8041 -26.365238,26.3653 0.007,0.081 0.0175,0.1576 0.02541,0.2382 -0.57324,12.1586 11.253521,20.2269 11.072274,30.0215 0,4.7973 0.112039,8.6602 0.251949,8.6602 l 0.13282,0 29.798821,0 0.130858,0 c 0.139921,0 0.25391,-3.8629 0.25391,-8.6602 -0.181259,-9.7946 11.64356,-17.8629 11.070312,-30.0215 0.008,-0.081 0.01988,-0.1569 0.02729,-0.2382 2.19e-4,-14.5612 -11.804049,-26.3651 -26.36523,-26.3653 -0.006,0 -0.01178,0 -0.01758,0 -0.006,0 -0.01009,0 -0.01558,0 z"
           id="path4156"
           inkscape:connector-curvature="0" />
        <path
           style="opacity:1;fill:none;fill-opacity:1;stroke:#000000;stroke-width:0.70866142;stroke-miterlimit:4;stroke-dasharray:none"
           d="m 7.2825682,2035.0721 c -0.069868,0 -0.1269512,0.7347 -0.1269512,1.6485 l 0,4.457 c 0,0.9138 0.057079,1.6485 0.1269512,1.6485 l 18.7460958,0 c 0.06987,0 0.125002,-0.7347 0.125002,-1.6485 l 0,-4.457 c 0,-0.9138 -0.05513,-1.6485 -0.125002,-1.6485 l -18.7460958,0 z"
           id="path4154"
           inkscape:connector-curvature="0" />
        <path
           style="opacity:1;fill:none;fill-opacity:1;stroke:#000000;stroke-width:0.70866142;stroke-miterlimit:4;stroke-dasharray:none"
           d="m 90.886083,2035.0721 c -0.0699,0 -0.125002,0.7347 -0.125002,1.6485 l 0,4.457 c 0,0.9138 0.0551,1.6485 0.125002,1.6485 l 18.746097,0 c 0.0699,0 0.12695,-0.7347 0.12695,-1.6485 l 0,-4.457 c 0,-0.9138 -0.0571,-1.6485 -0.12695,-1.6485 l -18.746097,0 z"
           id="path4152"
           inkscape:connector-curvature="0" />
        <path
           style="opacity:1;fill:none;fill-opacity:1;stroke:#000000;stroke-width:0.70866142;stroke-miterlimit:4;stroke-dasharray:none"
           d="m 43.354833,2086.6718 c -0.111932,0 -0.203122,0.7346 -0.203122,1.6484 l 0,4.457 c 0,0.9138 0.0912,1.6485 0.203122,1.6485 l 30.031249,0 c 0.111939,0 0.203129,-0.7347 0.203129,-1.6485 l 0,-4.457 c 0,-0.9138 -0.0912,-1.6484 -0.203129,-1.6484 l -30.031249,0 z"
           id="path4150"
           inkscape:connector-curvature="0" />
        <path
           style="opacity:1;fill:none;fill-opacity:1;stroke:#000000;stroke-width:0.70866142;stroke-miterlimit:4;stroke-dasharray:none"
           d="m 43.354833,2098.1854 c -0.111932,0 -0.203122,0.7367 -0.203122,1.6504 l 0,4.4551 c 0,0.9138 0.0912,1.6504 0.203122,1.6504 l 30.031249,0 c 0.111939,0 0.203129,-0.7366 0.203129,-1.6504 l 0,-4.4551 c 0,-0.9137 -0.0912,-1.6504 -0.203129,-1.6504 l -30.031249,0 z"
           id="rect4175"
           inkscape:connector-curvature="0" />
      </g>
    </g>
  </g>
</svg>
