<?xml version="1.0" encoding="UTF-8" standalone="no"?>
<!-- Created with Inkscape (http://www.inkscape.org/) -->

<svg
   xmlns:dc="http://purl.org/dc/elements/1.1/"
   xmlns:cc="http://creativecommons.org/ns#"
   xmlns:rdf="http://www.w3.org/1999/02/22-rdf-syntax-ns#"
   xmlns:svg="http://www.w3.org/2000/svg"
   xmlns="http://www.w3.org/2000/svg"
   xmlns:sodipodi="http://sodipodi.sourceforge.net/DTD/sodipodi-0.dtd"
   xmlns:inkscape="http://www.inkscape.org/namespaces/inkscape"
   width="352.77777mm"
   height="352.77777mm"
   viewBox="0 0 1250 1250"
   id="svg2"
   version="1.1"
   inkscape:version="0.91 r13725"
   sodipodi:docname="DigitalWalkingTours.svg">
  <defs
     id="defs4" />
  <sodipodi:namedview
     id="base"
     pagecolor="#ffffff"
     bordercolor="#666666"
     borderopacity="1.0"
     inkscape:pageopacity="0.0"
     inkscape:pageshadow="2"
     inkscape:zoom="0.34110832"
     inkscape:cx="624.99999"
     inkscape:cy="624.99999"
     inkscape:document-units="px"
     inkscape:current-layer="layer1"
     showgrid="false"
     fit-margin-top="0"
     fit-margin-left="0"
     fit-margin-right="0"
     fit-margin-bottom="0"
     inkscape:window-width="1325"
     inkscape:window-height="744"
     inkscape:window-x="41"
     inkscape:window-y="24"
     inkscape:window-maximized="1" />
  <metadata
     id="metadata7">
    <rdf:RDF>
      <cc:Work
         rdf:about="">
        <dc:format>image/svg+xml</dc:format>
        <dc:type
           rdf:resource="http://purl.org/dc/dcmitype/StillImage" />
        <dc:title></dc:title>
      </cc:Work>
    </rdf:RDF>
  </metadata>
  <g
     inkscape:label="Layer 1"
     inkscape:groupmode="layer"
     id="layer1"
     transform="translate(550.71429,329.78064)">
    <path
       style="fill:#4e9a06"
       d="m -231.96429,542.71936 0,-302.5 -14.375,0 -14.375,0 0,-33.75 0,-33.75 30,0 30,0 0,33.75 0,33.75 -7.5,0 -7.5,0 0,302.5 0,302.5 -8.125,0 -8.125,0 0,-302.5 z m 41.25,-2.5 0,-305 31.25,0 31.25,0 0,9.07016 c 0,27.13954 10.62569,83.68484 23.19428,123.42984 6.93208,21.92101 17.30494,43.19187 25.87797,53.06605 l 4.28995,4.94106 46.881738,-11.77785 46.881737,-11.77785 0.801862,-21.91321 c 0.928363,-25.37005 3.467988,-39.49459 9.895988,-55.0382 8.408762,-20.3333 9.927637,-26.78661 10.603762,-45.05271 0.551425,-14.89673 -0.728937,-32.82221 -3.009537,-42.13479 l -0.688775,-2.8125 25.135512,0 25.135513,0 0,-73.75 0,-73.75 8.75,0 8.75,0 0,-72.5 0,-72.5 56.25,0 56.25,0 0,72.5 0,72.5 35,0 35,0 0,-46.25 0,-46.25 76.25,0 76.25,0 0,83.75 0,83.75 -26.875,0 -26.875,0 0,341.25 0,341.25 -8.125,0 -8.125,0 0,-341.25 0,-341.25 -12.5,0 -12.5,0 0,341.25 0,341.25 -267.5,0 -267.5,0 0,-305 z m 355.30825,260.2492 c 18.0123,-8.86742 31.64997,-26.58118 41.42851,-53.81083 3.83691,-10.68438 9.15348,-36.29687 9.7355,-46.90065 l 0.40274,-7.33728 -44.375,-13.7827 c -24.40625,-7.5805 -45.76638,-13.84122 -47.46696,-13.91273 -2.59032,-0.10887 -4.04596,1.49239 -8.97215,9.86999 -12.70122,21.59996 -21.03009,48.8334 -21.02599,68.75 0.0037,20.13301 5.96544,35.51826 18.65471,48.14513 10.75795,10.70502 18.7149,13.88188 33.37855,13.32657 8.44343,-0.31975 11.57449,-1.06602 18.24009,-4.3475 z m 62.30791,-150.60665 c 16.93931,-14.46408 36.93093,-73.11221 47.60047,-139.64255 2.4154,-15.06128 2.88186,-22.45648 2.75963,-43.75 -0.31823,-55.44165 -9.51303,-90.07649 -29.22626,-110.08914 -13.23111,-13.43207 -26.11392,-17.98278 -48.75,-17.22041 -11.94287,0.40224 -13.88031,0.82079 -21.51119,4.64714 -29.79802,14.94161 -50.55085,52.25632 -63.70075,114.53741 -2.73158,12.93741 -3.8776,22.38848 -4.39561,36.25 -0.85869,22.97756 0.82073,33.17589 8.77968,53.31523 9.2761,23.47222 10.60058,30.33593 11.88491,61.5896 l 0.81796,19.90481 45,11.49135 c 24.75,6.32024 45.5625,11.54596 46.25,11.61272 0.6875,0.0668 2.70853,-1.12401 4.49116,-2.64616 z M 24.557685,573.58475 c 14.227775,-6.98672 24.022587,-20.16104 28.682637,-38.57905 4.812825,-19.02178 1.5147,-43.8932 -8.99975,-67.86784 -5.392162,-12.29496 -15.679062,-30.6685 -17.170562,-30.6685 -0.497537,0 -6.811913,1.92697 -14.03195,4.28218 -7.22005,2.3552 -26.3461,8.29831 -42.50235,13.20693 -16.15625,4.90862 -31.21614,9.4983 -33.46642,10.19932 -4.07857,1.27053 -4.08903,1.29485 -3.3278,7.73056 4.75611,40.21012 15.27213,68.34342 32.503095,86.95492 13.0639,14.11058 23.74135,18.99314 40.541125,18.53858 8.746588,-0.23666 11.888525,-0.90796 17.771975,-3.7971 z m -191.521975,-471.49039 0,-63.125 111.875,0 111.875,0 0,63.125 0,63.125 -21.09835,0 -21.09835,0 -1.634812,-3.94679 c -3.279201,-7.9167 -14.208776,-23.12948 -22.43,-31.22015 -5.709063,-5.61838 -11.499013,-9.81082 -17.957363,-13.00271 -8.603087,-4.25187 -10.7385,-4.7689 -21.920625,-5.30735 -21.50625,-1.0356 -37.88414,5.03661 -50.38616,18.68102 -5.88586,6.42368 -14.32488,21.22352 -17.16816,30.10848 l -1.50005,4.6875 -24.27807,0 -24.27806,0 0,-63.125 z m -151.25,-21.875 0,-50 56.25,0 56.25,0 0,50 0,50 -56.25,0 -56.25,0 0,-50 z m 192.5,-96.25 0,-41.25 35,0 35,0 0,41.25 0,41.25 -35,0 -35,0 0,-41.25 z m -95,-61.25 0,-30 28.75,0 28.75,0 0,30 0,30 -28.75,0 -28.75,0 0,-30 z m 510,-43.75 0,-21.25 20,0 20,0 0,21.25 0,21.25 -20,0 -20,0 0,-21.25 z m -330,-27.5 0,-31.25 28.75,0 28.75,0 0,31.25 0,31.25 -28.75,0 -28.75,0 0,-31.25 z m 107.5,-63.75 0,-27.5 25,0 25,0 0,27.5 0,27.5 -25,0 -25,0 0,-27.5 z"
       id="path3347"
       inkscape:connector-curvature="0" />
  </g>
</svg>
