<?xml version="1.0" encoding="UTF-8" standalone="no"?>
<!-- Created with Inkscape (http://www.inkscape.org/) -->

<svg
   xmlns:dc="http://purl.org/dc/elements/1.1/"
   xmlns:cc="http://creativecommons.org/ns#"
   xmlns:rdf="http://www.w3.org/1999/02/22-rdf-syntax-ns#"
   xmlns:svg="http://www.w3.org/2000/svg"
   xmlns="http://www.w3.org/2000/svg"
   xmlns:sodipodi="http://sodipodi.sourceforge.net/DTD/sodipodi-0.dtd"
   xmlns:inkscape="http://www.inkscape.org/namespaces/inkscape"
   width="210mm"
   height="297mm"
   viewBox="0 0 744.09448 1052.3622"
   id="svg2"
   version="1.1"
   inkscape:version="0.91 r13725"
   sodipodi:docname="HMI labels.svg"
   inkscape:export-filename="/home/craig/Desktop/Donations.png"
   inkscape:export-xdpi="299.65137"
   inkscape:export-ydpi="299.65137">
  <defs
     id="defs4" />
  <sodipodi:namedview
     id="base"
     pagecolor="#ffffff"
     bordercolor="#666666"
     borderopacity="1.0"
     inkscape:pageopacity="0.0"
     inkscape:pageshadow="2"
     inkscape:zoom="0.53350717"
     inkscape:cx="413.96095"
     inkscape:cy="366.35583"
     inkscape:document-units="px"
     inkscape:current-layer="layer1"
     showgrid="false"
     inkscape:window-width="1317"
     inkscape:window-height="744"
     inkscape:window-x="49"
     inkscape:window-y="24"
     inkscape:window-maximized="1" />
  <metadata
     id="metadata7">
    <rdf:RDF>
      <cc:Work
         rdf:about="">
        <dc:format>image/svg+xml</dc:format>
        <dc:type
           rdf:resource="http://purl.org/dc/dcmitype/StillImage" />
        <dc:title></dc:title>
      </cc:Work>
    </rdf:RDF>
  </metadata>
  <g
     inkscape:label="Layer 1"
     inkscape:groupmode="layer"
     id="layer1"
     transform="translate(0,-4.0944883e-6)">
    <g
       transform="matrix(0.39354485,0,0,0.39354485,167.39462,318.10425)"
       style="fill:#fce94f"
       id="g9695"
       inkscape:export-xdpi="300.08286"
       inkscape:export-ydpi="300.08286">
      <rect
         inkscape:export-ydpi="90"
         inkscape:export-xdpi="90"
         inkscape:export-filename="/home/craig/HobartMakerspace.png"
         ry="0.93458551"
         rx="6.2193146"
         y="657.27069"
         x="-349.01627"
         height="429"
         width="800.00006"
         id="rect4209"
         style="opacity:1;fill:#000000;fill-opacity:1;stroke:none;stroke-width:6;stroke-miterlimit:4;stroke-dasharray:none" />
      <g
         transform="matrix(1.6766549,0,0,1.6766549,-454.06381,338.05958)"
         id="g4211"
         style="fill:#ffffff">
        <g
           id="g4213"
           transform="matrix(0.61277811,0,0,0.61277811,-190.76343,114.90921)"
           style="fill:#ffffff"
           inkscape:export-filename="/home/craig/HobartMakerspace.png"
           inkscape:export-xdpi="111.54"
           inkscape:export-ydpi="111.54">
          <rect
             ry="0.41072077"
             rx="5.3715019"
             y="185.14624"
             x="596.98999"
             height="49.497475"
             width="20.203051"
             id="rect4215"
             style="opacity:1;fill:#ffffff;fill-opacity:1;stroke:none;stroke-width:6;stroke-miterlimit:4;stroke-dasharray:none" />
          <rect
             transform="matrix(0.70710678,0.70710678,-0.70710678,0.70710678,0,0)"
             style="opacity:1;fill:#ffffff;fill-opacity:1;stroke:none;stroke-width:6;stroke-miterlimit:4;stroke-dasharray:none"
             id="rect4217"
             width="20.203051"
             height="49.497475"
             x="642.90558"
             y="-337.77887"
             rx="5.3715019"
             ry="0.41072077" />
          <rect
             ry="0.41072077"
             rx="5.3715019"
             y="-740.8302"
             x="294.80368"
             height="49.497475"
             width="20.203051"
             id="rect4219"
             style="opacity:1;fill:#ffffff;fill-opacity:1;stroke:none;stroke-width:6;stroke-miterlimit:4;stroke-dasharray:none"
             transform="matrix(0,1,-1,0,0,0)" />
          <rect
             ry="0.41072077"
             rx="5.3715019"
             y="520.89301"
             x="-215.76633"
             height="49.497475"
             width="20.203051"
             id="rect4221"
             style="opacity:1;fill:#ffffff;fill-opacity:1;stroke:none;stroke-width:6;stroke-miterlimit:4;stroke-dasharray:none"
             transform="matrix(-0.70710678,0.70710678,0.70710678,0.70710678,0,0)" />
          <rect
             transform="matrix(0,1,1,0,0,0)"
             style="opacity:1;fill:#ffffff;fill-opacity:1;stroke:none;stroke-width:6;stroke-miterlimit:4;stroke-dasharray:none"
             id="rect4223"
             width="20.203051"
             height="49.497475"
             x="294.80368"
             y="473.51529"
             rx="5.3715019"
             ry="0.41072077" />
          <rect
             ry="0.65799141"
             rx="5.3715019"
             y="-646.59399"
             x="429.23767"
             height="79.296974"
             width="20.203051"
             id="rect4225"
             style="opacity:1;fill:#ffffff;fill-opacity:1;stroke:none;stroke-width:6;stroke-miterlimit:4;stroke-dasharray:none"
             transform="matrix(0,1,-1,0,0,0)" />
          <rect
             transform="matrix(0,1,-1,0,0,0)"
             style="opacity:1;fill:#ffffff;fill-opacity:1;stroke:none;stroke-width:6;stroke-miterlimit:4;stroke-dasharray:none"
             id="rect4227"
             width="20.203051"
             height="79.296974"
             x="459.23767"
             y="-646.59399"
             rx="5.3715019"
             ry="0.65799141" />
          <path
             inkscape:connector-curvature="0"
             id="path4229"
             d="m 606.73047,249.35352 c -37.93669,5.1e-4 -68.69002,30.75471 -68.68945,68.6914 0.0194,0.21193 0.0479,0.40902 0.0684,0.61914 -1.4935,31.67707 29.31793,52.6984 28.8457,78.2168 0,12.49841 0.29367,22.56055 0.6582,22.56055 l 0.3418,0 77.63867,0 0.3418,0 c 0.36453,0 0.6582,-10.06214 0.6582,-22.56055 -0.47223,-25.5184 30.3392,-46.53973 28.8457,-78.2168 0.0205,-0.21012 0.0489,-0.40721 0.0684,-0.61914 5.7e-4,-37.93669 -30.75276,-68.69089 -68.68945,-68.6914 -0.0151,0 -0.0299,0.002 -0.0449,0.002 -0.0144,-1e-5 -0.0285,-0.002 -0.043,-0.002 z"
             style="opacity:1;fill:#ffffff;fill-opacity:1;stroke:none;stroke-width:6;stroke-miterlimit:4;stroke-dasharray:none" />
        </g>
        <text
           xml:space="preserve"
           style="font-style:normal;font-variant:normal;font-weight:normal;font-stretch:normal;font-size:113.09451294px;line-height:85.00000238%;font-family:'League Gothic';-inkscape-font-specification:'League Gothic';letter-spacing:0px;word-spacing:0px;fill:#ffffff;stroke:none;stroke-width:1px;stroke-linecap:butt;stroke-linejoin:miter;stroke-opacity:1"
           x="279.62234"
           y="311.04703"
           id="text4231"
           sodipodi:linespacing="85.000002%"
           inkscape:export-filename="/home/craig/HobartMakerspace.png"
           inkscape:export-xdpi="111.54"
           inkscape:export-ydpi="111.54"><tspan
             sodipodi:role="line"
             id="tspan4233"
             x="279.62234"
             y="311.04703"
             style="font-style:normal;font-variant:normal;font-weight:normal;font-stretch:normal;line-height:85.00000238%;font-family:'League Gothic';-inkscape-font-specification:'League Gothic';fill:#ffffff;stroke:none">Hobart</tspan><tspan
             sodipodi:role="line"
             x="279.62234"
             y="407.17737"
             id="tspan4235"
             style="font-style:normal;font-variant:normal;font-weight:normal;font-stretch:normal;line-height:85.00000238%;font-family:'League Gothic';-inkscape-font-specification:'League Gothic';fill:#ffffff;stroke:none">Makers</tspan></text>
      </g>
    </g>
    <g
       inkscape:export-ydpi="300.08286"
       inkscape:export-xdpi="300.08286"
       id="g5818"
       style="fill:#fce94f"
       transform="matrix(0.39354485,0,0,0.39354485,167.39462,538.10425)">
      <rect
         style="opacity:1;fill:#000000;fill-opacity:1;stroke:none;stroke-width:6;stroke-miterlimit:4;stroke-dasharray:none"
         id="rect5820"
         width="800.00006"
         height="429"
         x="-349.01627"
         y="657.27069"
         rx="6.2193146"
         ry="0.93458551"
         inkscape:export-filename="/home/craig/HobartMakerspace.png"
         inkscape:export-xdpi="90"
         inkscape:export-ydpi="90" />
      <g
         style="fill:#ffffff"
         id="g5822"
         transform="matrix(1.6766549,0,0,1.6766549,-454.06381,338.05958)">
        <g
           inkscape:export-ydpi="111.54"
           inkscape:export-xdpi="111.54"
           inkscape:export-filename="/home/craig/HobartMakerspace.png"
           style="fill:#ffffff"
           transform="matrix(0.61277811,0,0,0.61277811,-190.76343,114.90921)"
           id="g5824">
          <rect
             style="opacity:1;fill:#ffffff;fill-opacity:1;stroke:none;stroke-width:6;stroke-miterlimit:4;stroke-dasharray:none"
             id="rect5826"
             width="20.203051"
             height="49.497475"
             x="596.98999"
             y="185.14624"
             rx="5.3715019"
             ry="0.41072077" />
          <rect
             ry="0.41072077"
             rx="5.3715019"
             y="-337.77887"
             x="642.90558"
             height="49.497475"
             width="20.203051"
             id="rect5828"
             style="opacity:1;fill:#ffffff;fill-opacity:1;stroke:none;stroke-width:6;stroke-miterlimit:4;stroke-dasharray:none"
             transform="matrix(0.70710678,0.70710678,-0.70710678,0.70710678,0,0)" />
          <rect
             transform="matrix(0,1,-1,0,0,0)"
             style="opacity:1;fill:#ffffff;fill-opacity:1;stroke:none;stroke-width:6;stroke-miterlimit:4;stroke-dasharray:none"
             id="rect5830"
             width="20.203051"
             height="49.497475"
             x="294.80368"
             y="-740.8302"
             rx="5.3715019"
             ry="0.41072077" />
          <rect
             transform="matrix(-0.70710678,0.70710678,0.70710678,0.70710678,0,0)"
             style="opacity:1;fill:#ffffff;fill-opacity:1;stroke:none;stroke-width:6;stroke-miterlimit:4;stroke-dasharray:none"
             id="rect5832"
             width="20.203051"
             height="49.497475"
             x="-215.76633"
             y="520.89301"
             rx="5.3715019"
             ry="0.41072077" />
          <rect
             ry="0.41072077"
             rx="5.3715019"
             y="473.51529"
             x="294.80368"
             height="49.497475"
             width="20.203051"
             id="rect5834"
             style="opacity:1;fill:#ffffff;fill-opacity:1;stroke:none;stroke-width:6;stroke-miterlimit:4;stroke-dasharray:none"
             transform="matrix(0,1,1,0,0,0)" />
          <rect
             transform="matrix(0,1,-1,0,0,0)"
             style="opacity:1;fill:#ffffff;fill-opacity:1;stroke:none;stroke-width:6;stroke-miterlimit:4;stroke-dasharray:none"
             id="rect5836"
             width="20.203051"
             height="79.296974"
             x="429.23767"
             y="-646.59399"
             rx="5.3715019"
             ry="0.65799141" />
          <rect
             ry="0.65799141"
             rx="5.3715019"
             y="-646.59399"
             x="459.23767"
             height="79.296974"
             width="20.203051"
             id="rect5838"
             style="opacity:1;fill:#ffffff;fill-opacity:1;stroke:none;stroke-width:6;stroke-miterlimit:4;stroke-dasharray:none"
             transform="matrix(0,1,-1,0,0,0)" />
          <path
             style="opacity:1;fill:#ffffff;fill-opacity:1;stroke:none;stroke-width:6;stroke-miterlimit:4;stroke-dasharray:none"
             d="m 606.73047,249.35352 c -37.93669,5.1e-4 -68.69002,30.75471 -68.68945,68.6914 0.0194,0.21193 0.0479,0.40902 0.0684,0.61914 -1.4935,31.67707 29.31793,52.6984 28.8457,78.2168 0,12.49841 0.29367,22.56055 0.6582,22.56055 l 0.3418,0 77.63867,0 0.3418,0 c 0.36453,0 0.6582,-10.06214 0.6582,-22.56055 -0.47223,-25.5184 30.3392,-46.53973 28.8457,-78.2168 0.0205,-0.21012 0.0489,-0.40721 0.0684,-0.61914 5.7e-4,-37.93669 -30.75276,-68.69089 -68.68945,-68.6914 -0.0151,0 -0.0299,0.002 -0.0449,0.002 -0.0144,-1e-5 -0.0285,-0.002 -0.043,-0.002 z"
             id="path5840"
             inkscape:connector-curvature="0" />
        </g>
        <text
           inkscape:export-ydpi="111.54"
           inkscape:export-xdpi="111.54"
           inkscape:export-filename="/home/craig/HobartMakerspace.png"
           sodipodi:linespacing="85.000002%"
           id="text5842"
           y="311.04703"
           x="279.62234"
           style="font-style:normal;font-variant:normal;font-weight:normal;font-stretch:normal;font-size:113.09451294px;line-height:85.00000238%;font-family:'League Gothic';-inkscape-font-specification:'League Gothic';letter-spacing:0px;word-spacing:0px;fill:#ffffff;stroke:none;stroke-width:1px;stroke-linecap:butt;stroke-linejoin:miter;stroke-opacity:1"
           xml:space="preserve"><tspan
             style="font-style:normal;font-variant:normal;font-weight:normal;font-stretch:normal;line-height:85.00000238%;font-family:'League Gothic';-inkscape-font-specification:'League Gothic';fill:#ffffff;stroke:none"
             y="311.04703"
             x="279.62234"
             id="tspan5844"
             sodipodi:role="line">Hobart</tspan><tspan
             style="font-style:normal;font-variant:normal;font-weight:normal;font-stretch:normal;line-height:85.00000238%;font-family:'League Gothic';-inkscape-font-specification:'League Gothic';fill:#ffffff;stroke:none"
             id="tspan5846"
             y="407.17737"
             x="279.62234"
             sodipodi:role="line">Makers</tspan></text>
      </g>
    </g>
    <g
       inkscape:export-ydpi="300.08286"
       inkscape:export-xdpi="300.08286"
       id="g5848"
       style="fill:#fce94f"
       transform="matrix(0.39354485,0,0,0.39354485,527.39462,318.10425)">
      <rect
         style="opacity:1;fill:#000000;fill-opacity:1;stroke:none;stroke-width:6;stroke-miterlimit:4;stroke-dasharray:none"
         id="rect5850"
         width="800.00006"
         height="429"
         x="-349.01627"
         y="657.27069"
         rx="6.2193146"
         ry="0.93458551"
         inkscape:export-filename="/home/craig/HobartMakerspace.png"
         inkscape:export-xdpi="90"
         inkscape:export-ydpi="90" />
      <g
         style="fill:#ffffff"
         id="g5852"
         transform="matrix(1.6766549,0,0,1.6766549,-454.06381,338.05958)">
        <g
           inkscape:export-ydpi="111.54"
           inkscape:export-xdpi="111.54"
           inkscape:export-filename="/home/craig/HobartMakerspace.png"
           style="fill:#ffffff"
           transform="matrix(0.61277811,0,0,0.61277811,-190.76343,114.90921)"
           id="g5854">
          <rect
             style="opacity:1;fill:#ffffff;fill-opacity:1;stroke:none;stroke-width:6;stroke-miterlimit:4;stroke-dasharray:none"
             id="rect5856"
             width="20.203051"
             height="49.497475"
             x="596.98999"
             y="185.14624"
             rx="5.3715019"
             ry="0.41072077" />
          <rect
             ry="0.41072077"
             rx="5.3715019"
             y="-337.77887"
             x="642.90558"
             height="49.497475"
             width="20.203051"
             id="rect5858"
             style="opacity:1;fill:#ffffff;fill-opacity:1;stroke:none;stroke-width:6;stroke-miterlimit:4;stroke-dasharray:none"
             transform="matrix(0.70710678,0.70710678,-0.70710678,0.70710678,0,0)" />
          <rect
             transform="matrix(0,1,-1,0,0,0)"
             style="opacity:1;fill:#ffffff;fill-opacity:1;stroke:none;stroke-width:6;stroke-miterlimit:4;stroke-dasharray:none"
             id="rect5860"
             width="20.203051"
             height="49.497475"
             x="294.80368"
             y="-740.8302"
             rx="5.3715019"
             ry="0.41072077" />
          <rect
             transform="matrix(-0.70710678,0.70710678,0.70710678,0.70710678,0,0)"
             style="opacity:1;fill:#ffffff;fill-opacity:1;stroke:none;stroke-width:6;stroke-miterlimit:4;stroke-dasharray:none"
             id="rect5862"
             width="20.203051"
             height="49.497475"
             x="-215.76633"
             y="520.89301"
             rx="5.3715019"
             ry="0.41072077" />
          <rect
             ry="0.41072077"
             rx="5.3715019"
             y="473.51529"
             x="294.80368"
             height="49.497475"
             width="20.203051"
             id="rect5864"
             style="opacity:1;fill:#ffffff;fill-opacity:1;stroke:none;stroke-width:6;stroke-miterlimit:4;stroke-dasharray:none"
             transform="matrix(0,1,1,0,0,0)" />
          <rect
             transform="matrix(0,1,-1,0,0,0)"
             style="opacity:1;fill:#ffffff;fill-opacity:1;stroke:none;stroke-width:6;stroke-miterlimit:4;stroke-dasharray:none"
             id="rect5866"
             width="20.203051"
             height="79.296974"
             x="429.23767"
             y="-646.59399"
             rx="5.3715019"
             ry="0.65799141" />
          <rect
             ry="0.65799141"
             rx="5.3715019"
             y="-646.59399"
             x="459.23767"
             height="79.296974"
             width="20.203051"
             id="rect5868"
             style="opacity:1;fill:#ffffff;fill-opacity:1;stroke:none;stroke-width:6;stroke-miterlimit:4;stroke-dasharray:none"
             transform="matrix(0,1,-1,0,0,0)" />
          <path
             style="opacity:1;fill:#ffffff;fill-opacity:1;stroke:none;stroke-width:6;stroke-miterlimit:4;stroke-dasharray:none"
             d="m 606.73047,249.35352 c -37.93669,5.1e-4 -68.69002,30.75471 -68.68945,68.6914 0.0194,0.21193 0.0479,0.40902 0.0684,0.61914 -1.4935,31.67707 29.31793,52.6984 28.8457,78.2168 0,12.49841 0.29367,22.56055 0.6582,22.56055 l 0.3418,0 77.63867,0 0.3418,0 c 0.36453,0 0.6582,-10.06214 0.6582,-22.56055 -0.47223,-25.5184 30.3392,-46.53973 28.8457,-78.2168 0.0205,-0.21012 0.0489,-0.40721 0.0684,-0.61914 5.7e-4,-37.93669 -30.75276,-68.69089 -68.68945,-68.6914 -0.0151,0 -0.0299,0.002 -0.0449,0.002 -0.0144,-1e-5 -0.0285,-0.002 -0.043,-0.002 z"
             id="path5870"
             inkscape:connector-curvature="0" />
        </g>
        <text
           inkscape:export-ydpi="111.54"
           inkscape:export-xdpi="111.54"
           inkscape:export-filename="/home/craig/HobartMakerspace.png"
           sodipodi:linespacing="85.000002%"
           id="text5872"
           y="311.04703"
           x="279.62234"
           style="font-style:normal;font-variant:normal;font-weight:normal;font-stretch:normal;font-size:113.09451294px;line-height:85.00000238%;font-family:'League Gothic';-inkscape-font-specification:'League Gothic';letter-spacing:0px;word-spacing:0px;fill:#ffffff;stroke:none;stroke-width:1px;stroke-linecap:butt;stroke-linejoin:miter;stroke-opacity:1"
           xml:space="preserve"><tspan
             style="font-style:normal;font-variant:normal;font-weight:normal;font-stretch:normal;line-height:85.00000238%;font-family:'League Gothic';-inkscape-font-specification:'League Gothic';fill:#ffffff;stroke:none"
             y="311.04703"
             x="279.62234"
             id="tspan5874"
             sodipodi:role="line">Hobart</tspan><tspan
             style="font-style:normal;font-variant:normal;font-weight:normal;font-stretch:normal;line-height:85.00000238%;font-family:'League Gothic';-inkscape-font-specification:'League Gothic';fill:#ffffff;stroke:none"
             id="tspan5876"
             y="407.17737"
             x="279.62234"
             sodipodi:role="line">Makers</tspan></text>
      </g>
    </g>
    <g
       transform="matrix(0.39354485,0,0,0.39354485,527.39462,538.10425)"
       style="fill:#fce94f"
       id="g5878"
       inkscape:export-xdpi="300.08286"
       inkscape:export-ydpi="300.08286">
      <rect
         inkscape:export-ydpi="90"
         inkscape:export-xdpi="90"
         inkscape:export-filename="/home/craig/HobartMakerspace.png"
         ry="0.93458551"
         rx="6.2193146"
         y="657.27069"
         x="-349.01627"
         height="429"
         width="800.00006"
         id="rect5880"
         style="opacity:1;fill:#000000;fill-opacity:1;stroke:none;stroke-width:6;stroke-miterlimit:4;stroke-dasharray:none" />
      <g
         transform="matrix(1.6766549,0,0,1.6766549,-454.06381,338.05958)"
         id="g5882"
         style="fill:#ffffff">
        <g
           id="g5884"
           transform="matrix(0.61277811,0,0,0.61277811,-190.76343,114.90921)"
           style="fill:#ffffff"
           inkscape:export-filename="/home/craig/HobartMakerspace.png"
           inkscape:export-xdpi="111.54"
           inkscape:export-ydpi="111.54">
          <rect
             ry="0.41072077"
             rx="5.3715019"
             y="185.14624"
             x="596.98999"
             height="49.497475"
             width="20.203051"
             id="rect5886"
             style="opacity:1;fill:#ffffff;fill-opacity:1;stroke:none;stroke-width:6;stroke-miterlimit:4;stroke-dasharray:none" />
          <rect
             transform="matrix(0.70710678,0.70710678,-0.70710678,0.70710678,0,0)"
             style="opacity:1;fill:#ffffff;fill-opacity:1;stroke:none;stroke-width:6;stroke-miterlimit:4;stroke-dasharray:none"
             id="rect5888"
             width="20.203051"
             height="49.497475"
             x="642.90558"
             y="-337.77887"
             rx="5.3715019"
             ry="0.41072077" />
          <rect
             ry="0.41072077"
             rx="5.3715019"
             y="-740.8302"
             x="294.80368"
             height="49.497475"
             width="20.203051"
             id="rect5890"
             style="opacity:1;fill:#ffffff;fill-opacity:1;stroke:none;stroke-width:6;stroke-miterlimit:4;stroke-dasharray:none"
             transform="matrix(0,1,-1,0,0,0)" />
          <rect
             ry="0.41072077"
             rx="5.3715019"
             y="520.89301"
             x="-215.76633"
             height="49.497475"
             width="20.203051"
             id="rect5892"
             style="opacity:1;fill:#ffffff;fill-opacity:1;stroke:none;stroke-width:6;stroke-miterlimit:4;stroke-dasharray:none"
             transform="matrix(-0.70710678,0.70710678,0.70710678,0.70710678,0,0)" />
          <rect
             transform="matrix(0,1,1,0,0,0)"
             style="opacity:1;fill:#ffffff;fill-opacity:1;stroke:none;stroke-width:6;stroke-miterlimit:4;stroke-dasharray:none"
             id="rect5894"
             width="20.203051"
             height="49.497475"
             x="294.80368"
             y="473.51529"
             rx="5.3715019"
             ry="0.41072077" />
          <rect
             ry="0.65799141"
             rx="5.3715019"
             y="-646.59399"
             x="429.23767"
             height="79.296974"
             width="20.203051"
             id="rect5896"
             style="opacity:1;fill:#ffffff;fill-opacity:1;stroke:none;stroke-width:6;stroke-miterlimit:4;stroke-dasharray:none"
             transform="matrix(0,1,-1,0,0,0)" />
          <rect
             transform="matrix(0,1,-1,0,0,0)"
             style="opacity:1;fill:#ffffff;fill-opacity:1;stroke:none;stroke-width:6;stroke-miterlimit:4;stroke-dasharray:none"
             id="rect5898"
             width="20.203051"
             height="79.296974"
             x="459.23767"
             y="-646.59399"
             rx="5.3715019"
             ry="0.65799141" />
          <path
             inkscape:connector-curvature="0"
             id="path5900"
             d="m 606.73047,249.35352 c -37.93669,5.1e-4 -68.69002,30.75471 -68.68945,68.6914 0.0194,0.21193 0.0479,0.40902 0.0684,0.61914 -1.4935,31.67707 29.31793,52.6984 28.8457,78.2168 0,12.49841 0.29367,22.56055 0.6582,22.56055 l 0.3418,0 77.63867,0 0.3418,0 c 0.36453,0 0.6582,-10.06214 0.6582,-22.56055 -0.47223,-25.5184 30.3392,-46.53973 28.8457,-78.2168 0.0205,-0.21012 0.0489,-0.40721 0.0684,-0.61914 5.7e-4,-37.93669 -30.75276,-68.69089 -68.68945,-68.6914 -0.0151,0 -0.0299,0.002 -0.0449,0.002 -0.0144,-1e-5 -0.0285,-0.002 -0.043,-0.002 z"
             style="opacity:1;fill:#ffffff;fill-opacity:1;stroke:none;stroke-width:6;stroke-miterlimit:4;stroke-dasharray:none" />
        </g>
        <text
           xml:space="preserve"
           style="font-style:normal;font-variant:normal;font-weight:normal;font-stretch:normal;font-size:113.09451294px;line-height:85.00000238%;font-family:'League Gothic';-inkscape-font-specification:'League Gothic';letter-spacing:0px;word-spacing:0px;fill:#ffffff;stroke:none;stroke-width:1px;stroke-linecap:butt;stroke-linejoin:miter;stroke-opacity:1"
           x="279.62234"
           y="311.04703"
           id="text5902"
           sodipodi:linespacing="85.000002%"
           inkscape:export-filename="/home/craig/HobartMakerspace.png"
           inkscape:export-xdpi="111.54"
           inkscape:export-ydpi="111.54"><tspan
             sodipodi:role="line"
             id="tspan5904"
             x="279.62234"
             y="311.04703"
             style="font-style:normal;font-variant:normal;font-weight:normal;font-stretch:normal;line-height:85.00000238%;font-family:'League Gothic';-inkscape-font-specification:'League Gothic';fill:#ffffff;stroke:none">Hobart</tspan><tspan
             sodipodi:role="line"
             x="279.62234"
             y="407.17737"
             id="tspan5906"
             style="font-style:normal;font-variant:normal;font-weight:normal;font-stretch:normal;line-height:85.00000238%;font-family:'League Gothic';-inkscape-font-specification:'League Gothic';fill:#ffffff;stroke:none">Makers</tspan></text>
      </g>
    </g>
  </g>
</svg>
